<mxfile host="app.diagrams.net" modified="2023-10-28T14:04:50.700Z" agent="Mozilla/5.0 (Macintosh; Intel Mac OS X 10_15_7) AppleWebKit/537.36 (KHTML, like Gecko) Chrome/118.0.0.0 Safari/537.36" version="22.0.8" etag="BXJjPIFP3_e1lc41Pdrv" type="github">
  <diagram name="Page-1" id="0_zKBw4BjzZlQdIS3VmF">
    <mxGraphModel>
      <root>
        <mxCell id="0" />
        <mxCell id="1" parent="0" />
      </root>
    </mxGraphModel>
  </diagram>
</mxfile>
